<mxfile host="app.diagrams.net" modified="2023-09-04T02:39:18.372Z" agent="Mozilla/5.0 (Windows NT 10.0; Win64; x64; rv:109.0) Gecko/20100101 Firefox/117.0" etag="aAzpvC_cFydI6d6xfipt" version="21.7.1" type="github">
  <diagram name="Page-1" id="9rA9lKoRtjfUEAICKigl">
    <mxGraphModel dx="1687" dy="2020" grid="1" gridSize="10" guides="1" tooltips="1" connect="1" arrows="1" fold="1" page="1" pageScale="1" pageWidth="850" pageHeight="1100" background="#663300" math="0" shadow="0">
      <root>
        <mxCell id="0" />
        <mxCell id="1" parent="0" />
        <mxCell id="LB6RR5R6ET7taKvT4Xzy-3" value="&lt;div&gt;Abstract Class Device&lt;/div&gt;" style="ellipse;whiteSpace=wrap;html=1;fillColor=#f8cecc;strokeColor=#b85450;" parent="1" vertex="1">
          <mxGeometry x="40" y="-650" width="320" height="50" as="geometry" />
        </mxCell>
        <mxCell id="LB6RR5R6ET7taKvT4Xzy-4" value="&lt;div&gt;deviceName&lt;/div&gt;&lt;div&gt;deviceLocation&lt;/div&gt;&lt;div&gt;nextRevisionData&lt;/div&gt;&lt;div&gt;&lt;br&gt;&lt;/div&gt;&lt;div&gt;turnOn&lt;/div&gt;&lt;div&gt;turnOff&lt;br&gt;&lt;/div&gt;" style="rounded=1;whiteSpace=wrap;html=1;fillColor=#f8cecc;strokeColor=#b85450;" parent="1" vertex="1">
          <mxGeometry x="20" y="-600" width="360" height="150" as="geometry" />
        </mxCell>
        <mxCell id="LB6RR5R6ET7taKvT4Xzy-5" value="Device Interfaces" style="rounded=1;whiteSpace=wrap;html=1;fillColor=#d5e8d4;strokeColor=#82b366;" parent="1" vertex="1">
          <mxGeometry x="30" y="-400" width="330" height="60" as="geometry" />
        </mxCell>
        <mxCell id="LB6RR5R6ET7taKvT4Xzy-6" value="&lt;div&gt;NightMode&lt;/div&gt;&lt;div&gt;&lt;br&gt;&lt;/div&gt;&lt;div&gt;lowLightMode()&lt;/div&gt;&lt;div&gt;&lt;br&gt;&lt;/div&gt;&lt;div&gt;silentMode()&lt;br&gt;&lt;/div&gt;&lt;div&gt;&lt;br&gt;&lt;/div&gt;&lt;div&gt;&lt;br&gt;&lt;/div&gt;" style="ellipse;whiteSpace=wrap;html=1;fillColor=#d5e8d4;strokeColor=#82b366;" parent="1" vertex="1">
          <mxGeometry x="50" y="-210" width="200" height="130" as="geometry" />
        </mxCell>
        <mxCell id="LB6RR5R6ET7taKvT4Xzy-7" value="&lt;div&gt;PowerSavingMode&lt;/div&gt;&lt;div&gt;&lt;br&gt;&lt;/div&gt;&lt;div&gt;powerSaver()&lt;br&gt;&lt;/div&gt;" style="ellipse;whiteSpace=wrap;html=1;fillColor=#d5e8d4;strokeColor=#82b366;" parent="1" vertex="1">
          <mxGeometry x="280" y="-210" width="210" height="130" as="geometry" />
        </mxCell>
        <mxCell id="LB6RR5R6ET7taKvT4Xzy-8" value="&lt;div&gt;AlertMode&lt;/div&gt;&lt;div&gt;&lt;br&gt;&lt;/div&gt;&lt;div&gt;activateAlertMode()&lt;br&gt;&lt;/div&gt;" style="ellipse;whiteSpace=wrap;html=1;fillColor=#d5e8d4;strokeColor=#82b366;" parent="1" vertex="1">
          <mxGeometry x="530" y="-210" width="210" height="130" as="geometry" />
        </mxCell>
        <mxCell id="LB6RR5R6ET7taKvT4Xzy-10" value="" style="endArrow=none;html=1;rounded=0;exitX=0.5;exitY=0;exitDx=0;exitDy=0;entryX=0.5;entryY=1;entryDx=0;entryDy=0;" parent="1" source="LB6RR5R6ET7taKvT4Xzy-6" target="LB6RR5R6ET7taKvT4Xzy-5" edge="1">
          <mxGeometry width="50" height="50" relative="1" as="geometry">
            <mxPoint x="390" y="-330" as="sourcePoint" />
            <mxPoint x="440" y="-380" as="targetPoint" />
          </mxGeometry>
        </mxCell>
        <mxCell id="LB6RR5R6ET7taKvT4Xzy-11" value="" style="endArrow=none;html=1;rounded=0;exitX=0.5;exitY=0;exitDx=0;exitDy=0;entryX=0.5;entryY=1;entryDx=0;entryDy=0;" parent="1" source="LB6RR5R6ET7taKvT4Xzy-7" target="LB6RR5R6ET7taKvT4Xzy-5" edge="1">
          <mxGeometry width="50" height="50" relative="1" as="geometry">
            <mxPoint x="390" y="-330" as="sourcePoint" />
            <mxPoint x="440" y="-380" as="targetPoint" />
          </mxGeometry>
        </mxCell>
        <mxCell id="LB6RR5R6ET7taKvT4Xzy-12" value="" style="endArrow=none;html=1;rounded=0;exitX=0.5;exitY=1;exitDx=0;exitDy=0;entryX=0.5;entryY=0;entryDx=0;entryDy=0;" parent="1" source="LB6RR5R6ET7taKvT4Xzy-5" target="LB6RR5R6ET7taKvT4Xzy-8" edge="1">
          <mxGeometry width="50" height="50" relative="1" as="geometry">
            <mxPoint x="390" y="-330" as="sourcePoint" />
            <mxPoint x="440" y="-380" as="targetPoint" />
          </mxGeometry>
        </mxCell>
        <mxCell id="LB6RR5R6ET7taKvT4Xzy-13" value="&lt;div&gt;Abstract class User&lt;/div&gt;&lt;div&gt;String name&lt;br&gt;&lt;/div&gt;&lt;div&gt;&lt;br&gt;&lt;/div&gt;" style="ellipse;whiteSpace=wrap;html=1;" parent="1" vertex="1">
          <mxGeometry x="880" y="-1070" width="280" height="140" as="geometry" />
        </mxCell>
        <mxCell id="LB6RR5R6ET7taKvT4Xzy-495" value="&lt;div&gt;Smart House class&lt;/div&gt;" style="swimlane;whiteSpace=wrap;html=1;fillColor=#dae8fc;strokeColor=#6c8ebf;" parent="1" vertex="1">
          <mxGeometry x="30" y="-1070" width="510" height="170" as="geometry" />
        </mxCell>
        <mxCell id="LB6RR5R6ET7taKvT4Xzy-496" value="&lt;div&gt;Fields&lt;/div&gt;&lt;div&gt;List&amp;lt;User&amp;gt;&lt;br&gt;&lt;/div&gt;&lt;div&gt;List&amp;lt;Room&amp;gt;&lt;/div&gt;" style="rounded=1;whiteSpace=wrap;html=1;fillColor=#dae8fc;strokeColor=#6c8ebf;" parent="LB6RR5R6ET7taKvT4Xzy-495" vertex="1">
          <mxGeometry y="30" width="510" height="130" as="geometry" />
        </mxCell>
        <mxCell id="yLEq_J4bFB693XNkT7zh-1" value="&lt;div&gt;Room&amp;nbsp; Class&lt;/div&gt;" style="swimlane;whiteSpace=wrap;html=1;fillColor=#dae8fc;strokeColor=#6c8ebf;" vertex="1" parent="1">
          <mxGeometry x="30" y="-850" width="510" height="170" as="geometry" />
        </mxCell>
        <mxCell id="yLEq_J4bFB693XNkT7zh-2" value="&lt;div&gt;Fields&lt;/div&gt;&lt;div&gt;String roomName&lt;/div&gt;&lt;div&gt;boolean isPrivate&lt;br&gt;&lt;/div&gt;&lt;div&gt;List&amp;lt;Device&amp;gt;&lt;/div&gt;&lt;div&gt;Methods&lt;/div&gt;&lt;div&gt;installDevice&lt;/div&gt;&lt;div&gt;uninstallDevice&lt;br&gt;&lt;/div&gt;&lt;div&gt;&lt;br&gt;&lt;/div&gt;" style="rounded=1;whiteSpace=wrap;html=1;fillColor=#dae8fc;strokeColor=#6c8ebf;" vertex="1" parent="yLEq_J4bFB693XNkT7zh-1">
          <mxGeometry y="30" width="510" height="130" as="geometry" />
        </mxCell>
        <mxCell id="yLEq_J4bFB693XNkT7zh-5" value="&lt;div&gt;Abstract class Atmospheric Device&lt;/div&gt;&lt;div&gt;extends Device&lt;/div&gt;&lt;div&gt;implements PowerSavingMode&lt;br&gt;&lt;/div&gt;" style="rounded=1;whiteSpace=wrap;html=1;fillColor=#f8cecc;strokeColor=#b85450;" vertex="1" parent="1">
          <mxGeometry x="425" y="-640" width="265" height="60" as="geometry" />
        </mxCell>
        <mxCell id="yLEq_J4bFB693XNkT7zh-6" value="&lt;div&gt;Abstract class SecurityDevice&lt;/div&gt;&lt;div&gt;extends Device&lt;/div&gt;&lt;div&gt;implements AlertMode&lt;br&gt;&lt;/div&gt;" style="rounded=1;whiteSpace=wrap;html=1;fillColor=#f8cecc;strokeColor=#b85450;" vertex="1" parent="1">
          <mxGeometry x="430" y="-550" width="260" height="60" as="geometry" />
        </mxCell>
        <mxCell id="yLEq_J4bFB693XNkT7zh-7" value="&lt;div&gt;Abstract class Multimedia Device&lt;/div&gt;&lt;div&gt;extends Device&lt;/div&gt;&lt;div&gt;implements PowerSavingMode, NightMode&lt;br&gt;&lt;/div&gt;" style="rounded=1;whiteSpace=wrap;html=1;fillColor=#f8cecc;strokeColor=#b85450;" vertex="1" parent="1">
          <mxGeometry x="425" y="-450" width="265" height="60" as="geometry" />
        </mxCell>
        <mxCell id="yLEq_J4bFB693XNkT7zh-8" value="" style="endArrow=none;html=1;rounded=0;exitX=1;exitY=0.5;exitDx=0;exitDy=0;entryX=0;entryY=0.5;entryDx=0;entryDy=0;" edge="1" parent="1" source="LB6RR5R6ET7taKvT4Xzy-4" target="yLEq_J4bFB693XNkT7zh-7">
          <mxGeometry width="50" height="50" relative="1" as="geometry">
            <mxPoint x="460" y="-400" as="sourcePoint" />
            <mxPoint x="510" y="-450" as="targetPoint" />
          </mxGeometry>
        </mxCell>
        <mxCell id="yLEq_J4bFB693XNkT7zh-9" value="" style="endArrow=none;html=1;rounded=0;entryX=0;entryY=0.5;entryDx=0;entryDy=0;exitX=1;exitY=0.5;exitDx=0;exitDy=0;" edge="1" parent="1" source="LB6RR5R6ET7taKvT4Xzy-4" target="yLEq_J4bFB693XNkT7zh-6">
          <mxGeometry width="50" height="50" relative="1" as="geometry">
            <mxPoint x="460" y="-400" as="sourcePoint" />
            <mxPoint x="510" y="-450" as="targetPoint" />
          </mxGeometry>
        </mxCell>
        <mxCell id="yLEq_J4bFB693XNkT7zh-10" value="" style="endArrow=none;html=1;rounded=0;exitX=1;exitY=0.5;exitDx=0;exitDy=0;entryX=0;entryY=0.5;entryDx=0;entryDy=0;" edge="1" parent="1" source="LB6RR5R6ET7taKvT4Xzy-4" target="yLEq_J4bFB693XNkT7zh-5">
          <mxGeometry width="50" height="50" relative="1" as="geometry">
            <mxPoint x="460" y="-400" as="sourcePoint" />
            <mxPoint x="510" y="-450" as="targetPoint" />
          </mxGeometry>
        </mxCell>
        <mxCell id="yLEq_J4bFB693XNkT7zh-11" value="&lt;div&gt;Visitor&lt;br&gt;&lt;/div&gt;&lt;div&gt;extends User&lt;/div&gt;&lt;div&gt;control device if room is not private&lt;br&gt;&lt;/div&gt;" style="ellipse;whiteSpace=wrap;html=1;" vertex="1" parent="1">
          <mxGeometry x="880" y="-890" width="280" height="80" as="geometry" />
        </mxCell>
        <mxCell id="yLEq_J4bFB693XNkT7zh-12" value="&lt;div&gt;Resident&lt;/div&gt;&lt;div&gt;extends Visitor&lt;/div&gt;&lt;div&gt;controlDevice&lt;br&gt;&lt;/div&gt;" style="ellipse;whiteSpace=wrap;html=1;" vertex="1" parent="1">
          <mxGeometry x="860" y="-790" width="320" height="80" as="geometry" />
        </mxCell>
        <mxCell id="yLEq_J4bFB693XNkT7zh-13" value="&lt;div&gt;Owner&lt;/div&gt;&lt;div&gt;extends Resident&lt;/div&gt;&lt;div&gt;installDevice&lt;/div&gt;&lt;div&gt;uninstallDevice&lt;br&gt;&lt;/div&gt;" style="ellipse;whiteSpace=wrap;html=1;" vertex="1" parent="1">
          <mxGeometry x="860" y="-680" width="340" height="80" as="geometry" />
        </mxCell>
        <mxCell id="yLEq_J4bFB693XNkT7zh-14" value="" style="endArrow=classic;html=1;rounded=0;exitX=0.5;exitY=1;exitDx=0;exitDy=0;entryX=0.5;entryY=0;entryDx=0;entryDy=0;" edge="1" parent="1" source="LB6RR5R6ET7taKvT4Xzy-13" target="yLEq_J4bFB693XNkT7zh-11">
          <mxGeometry width="50" height="50" relative="1" as="geometry">
            <mxPoint x="1080" y="-830" as="sourcePoint" />
            <mxPoint x="1130" y="-880" as="targetPoint" />
          </mxGeometry>
        </mxCell>
        <mxCell id="yLEq_J4bFB693XNkT7zh-15" value="" style="endArrow=classic;html=1;rounded=0;exitX=0.5;exitY=1;exitDx=0;exitDy=0;entryX=0.5;entryY=0;entryDx=0;entryDy=0;" edge="1" parent="1" source="yLEq_J4bFB693XNkT7zh-11" target="yLEq_J4bFB693XNkT7zh-12">
          <mxGeometry width="50" height="50" relative="1" as="geometry">
            <mxPoint x="1010" y="-770" as="sourcePoint" />
            <mxPoint x="1060" y="-820" as="targetPoint" />
          </mxGeometry>
        </mxCell>
        <mxCell id="yLEq_J4bFB693XNkT7zh-16" value="" style="endArrow=classic;html=1;rounded=0;exitX=0.5;exitY=1;exitDx=0;exitDy=0;entryX=0.5;entryY=0;entryDx=0;entryDy=0;" edge="1" parent="1" source="yLEq_J4bFB693XNkT7zh-12" target="yLEq_J4bFB693XNkT7zh-13">
          <mxGeometry width="50" height="50" relative="1" as="geometry">
            <mxPoint x="1080" y="-830" as="sourcePoint" />
            <mxPoint x="1130" y="-880" as="targetPoint" />
          </mxGeometry>
        </mxCell>
      </root>
    </mxGraphModel>
  </diagram>
</mxfile>
